<?xml version="1.0" encoding="UTF-8" standalone="no"?>
<svg
   width="20"
   height="16"
   viewBox="0 0 20 16"
   fill="none"
   version="1.1"
   id="svg12"
   sodipodi:docname="cardsSelect.svg"
   inkscape:version="1.2.1 (9c6d41e410, 2022-07-14)"
   xmlns:inkscape="http://www.inkscape.org/namespaces/inkscape"
   xmlns:sodipodi="http://sodipodi.sourceforge.net/DTD/sodipodi-0.dtd"
   xmlns="http://www.w3.org/2000/svg"
   xmlns:svg="http://www.w3.org/2000/svg">
  <defs
     id="defs16" />
  <sodipodi:namedview
     id="namedview14"
     pagecolor="#ffffff"
     bordercolor="#000000"
     borderopacity="0.25"
     inkscape:showpageshadow="2"
     inkscape:pageopacity="0.0"
     inkscape:pagecheckerboard="0"
     inkscape:deskcolor="#d1d1d1"
     showgrid="false"
     inkscape:zoom="52.3125"
     inkscape:cx="9.9976105"
     inkscape:cy="8.0095579"
     inkscape:window-width="1920"
     inkscape:window-height="1017"
     inkscape:window-x="-8"
     inkscape:window-y="-8"
     inkscape:window-maximized="1"
     inkscape:current-layer="svg12" />
  <path
     d="M18 0H2C0.89 0 0.00999999 0.89 0.00999999 2L0 14C0 15.11 0.89 16 2 16H18C19.11 16 20 15.11 20 14V2C20 0.89 19.11 0 18 0ZM18 14H2V8H18V14ZM18 4H2V2H18V4Z"
     fill="#616161"
     id="path10" />
  <path
     style="fill:#ffffff;stroke-width:0.0191159"
     d="M 1.6564927,15.959995 C 0.83674254,15.811468 0.20274799,15.18411 0.04522264,14.365591 0.00345099,14.148541 0.00603304,1.9370565 0.04790533,1.6781668 0.17595905,0.88643103 0.75203989,0.26350931 1.5425189,0.06202687 L 1.7108722,0.01911589 h 8.2962958 8.296297 L 18.489,0.07036923 c 0.816629,0.22559023 1.379163,0.86810785 1.486495,1.69785057 0.02509,0.1939325 0.02526,12.2684942 1.91e-4,12.4617202 -0.05772,0.444718 -0.231235,0.81492 -0.529739,1.130254 -0.262996,0.277823 -0.576393,0.464315 -0.95693,0.569437 l -0.185552,0.05125 -8.248507,0.0031 c -7.0558211,0.0027 -8.2701896,-7.88e-4 -8.3984653,-0.02403 z m 16.3506753,-4.9588 V 8 H 9.9976105 1.9880526 v 3.001195 3.001194 h 8.0095579 8.0095575 z m 0,-8.0000003 V 1.9976105 H 9.9976105 1.9880526 V 3.0011947 4.004779 h 8.0095579 8.0095575 z"
     id="path191" />
</svg>
