<svg width="40" height="40" viewBox="0 0 40 40" fill="none" xmlns="http://www.w3.org/2000/svg">
<g clip-path="url(#clip0_5931_60330)">
<path d="M19.4338 14.6008C20.3938 14.6008 21.0338 15.2407 21.0338 16.2008C21.0338 17.1608 21.6737 17.8008 22.6338 17.8008C23.5938 17.8008 24.2338 17.1608 24.2338 16.2008C24.2338 14.1209 22.9539 12.3608 21.0338 11.7209V11.4008C21.0338 10.4407 20.3938 9.80078 19.4338 9.80078C18.4737 9.80078 17.8338 10.4407 17.8338 11.4008V11.7209C15.9137 12.3608 14.6338 14.1209 14.6338 16.2008C14.6338 18.9209 16.7137 21.0008 19.4338 21.0008C20.3938 21.0008 21.0338 21.6407 21.0338 22.6008C21.0338 23.5608 20.3938 24.2008 19.4338 24.2008C18.4737 24.2008 17.8338 23.5608 17.8338 22.6008C17.8338 21.6407 17.1938 21.0008 16.2338 21.0008C15.2737 21.0008 14.6338 21.6407 14.6338 22.6008C14.6338 24.6806 15.9137 26.4407 17.8338 27.0806V27.4007C17.8338 28.3608 18.4737 29.0007 19.4338 29.0007C20.3938 29.0007 21.0338 28.3608 21.0338 27.4007V27.0806C22.9539 26.4407 24.2338 24.6806 24.2338 22.6008C24.2338 19.8806 22.1539 17.8008 19.4338 17.8008C18.4737 17.8008 17.8338 17.1608 17.8338 16.2008C17.8338 15.2407 18.4737 14.6008 19.4338 14.6008Z" fill="#616161"/>
<path d="M35.4335 26.12C35.1134 25.32 34.3134 24.8401 33.3536 25.1599L32.3935 25.48C36.8734 15.72 29.8335 5 19.4335 5C18.4734 5 17.8335 5.63994 17.8335 6.6C17.8335 7.56006 18.4734 8.2 19.4335 8.2C27.7535 8.2 33.1935 17 29.3535 24.52L28.8736 22.92C28.5535 22.12 27.7535 21.6401 26.7937 21.9599C25.9937 22.28 25.5138 23.08 25.8337 24.0398L27.4337 28.9999C27.7538 29.7999 28.5538 30.2798 29.5136 29.9599L34.4736 28.3599C35.2734 27.8798 35.7535 26.92 35.4335 26.12L35.4335 26.12Z" fill="#616161"/>
<path d="M19.4337 30.6006C11.1137 30.6006 5.67366 21.8006 9.51366 14.2806L9.99357 15.8806C10.3137 16.6806 11.1137 17.1605 12.0735 16.8406C12.8737 16.6806 13.3538 15.7208 13.0337 14.9208L11.4337 9.9607C11.1136 9.1607 10.1539 8.68058 9.35386 9.00064L4.3938 10.6006C3.5938 10.9207 3.11369 11.8805 3.43375 12.6805C3.7538 13.4805 4.55386 13.9604 5.51363 13.6406L6.47369 13.3205C1.9938 23.0805 9.03374 33.8005 19.4337 33.8005C20.3937 33.8005 21.0337 33.1606 21.0337 32.2005C21.0337 31.2404 20.3937 30.6005 19.4337 30.6005L19.4337 30.6006Z" fill="#616161"/>
</g>
<defs>
<clipPath id="clip0_5931_60330">
<rect width="40" height="40" fill="white"/>
</clipPath>
</defs>
</svg>
