<?xml version="1.0" encoding="UTF-8" standalone="no"?>
<svg
   width="20"
   height="20"
   viewBox="0 0 20 20"
   fill="none"
   version="1.1"
   id="svg184"
   sodipodi:docname="dealsAndOffersSelect.svg"
   inkscape:version="1.2.1 (9c6d41e410, 2022-07-14)"
   xmlns:inkscape="http://www.inkscape.org/namespaces/inkscape"
   xmlns:sodipodi="http://sodipodi.sourceforge.net/DTD/sodipodi-0.dtd"
   xmlns="http://www.w3.org/2000/svg"
   xmlns:svg="http://www.w3.org/2000/svg">
  <defs
     id="defs188" />
  <sodipodi:namedview
     id="namedview186"
     pagecolor="#ffffff"
     bordercolor="#000000"
     borderopacity="0.25"
     inkscape:showpageshadow="2"
     inkscape:pageopacity="0.0"
     inkscape:pagecheckerboard="0"
     inkscape:deskcolor="#d1d1d1"
     showgrid="false"
     inkscape:zoom="41.85"
     inkscape:cx="10.04779"
     inkscape:cy="10.011947"
     inkscape:window-width="1920"
     inkscape:window-height="1017"
     inkscape:window-x="-8"
     inkscape:window-y="-8"
     inkscape:window-maximized="1"
     inkscape:current-layer="svg184" />
  <path
     d="M19.41 9.58L10.41 0.58C10.05 0.22 9.55 0 9 0H2C0.9 0 0 0.9 0 2V9C0 9.55 0.22 10.05 0.59 10.42L9.59 19.42C9.95 19.78 10.45 20 11 20C11.55 20 12.05 19.78 12.41 19.41L19.41 12.41C19.78 12.05 20 11.55 20 11C20 10.45 19.77 9.94 19.41 9.58ZM11 18.01L2 9V2H9V1.99L18 10.99L11 18.01Z"
     fill="#616161"
     id="path182" />
  <path
     d="m 4.4205496,5.9205496 c 0.82843,0 1.5,-0.67157 1.5,-1.5 0,-0.828427 -0.67157,-1.5 -1.5,-1.5 -0.828427,0 -1.5,0.671573 -1.5,1.5 0,0.82843 0.671573,1.5 1.5,1.5 z"
     fill="#616161"
     id="path2" />
  <path
     style="fill:#ffffff;stroke-width:0.0238949"
     d="M 4.2293907,5.8988354 C 3.899297,5.8480323 3.613388,5.6992158 3.3691756,5.451091 3.069508,5.1466227 2.9415066,4.8381815 2.9415066,4.4205496 c 0,-0.425735 0.1277971,-0.7281759 0.4393321,-1.0397109 C 3.6962302,3.0654471 3.995505,2.9405197 4.432497,2.941841 c 0.2158045,6.525e-4 0.2794511,0.010738 0.4550578,0.072109 0.112289,0.039243 0.2648427,0.1116284 0.3390082,0.1608567 0.2891849,0.1919499 0.526042,0.5168741 0.6304435,0.8648519 0.057674,0.1922303 0.057674,0.5695511 0,0.7617814 -0.1531809,0.5105628 -0.5410756,0.9017719 -1.0414759,1.0503748 -0.1353149,0.040184 -0.4608684,0.0663 -0.5861399,0.047021 z"
     id="path249" />
  <path
     style="fill:#ffffff;stroke-width:0.0238949"
     d="M 10.672973,19.961265 C 10.364995,19.910056 10.038306,19.765503 9.7849462,19.568333 9.7126643,19.512082 7.5770566,17.38727 5.0391517,14.84653 -0.00797526,9.7937634 0.28073254,10.098838 0.12913522,9.6581579 0.09209052,9.5504722 0.05026542,9.3870968 0.03619058,9.2951016 0.01859801,9.180114 0.01272204,7.9628184 0.01738982,5.4002389 0.02375381,1.9064492 0.02684816,1.6637399 0.06672284,1.5307407 0.18205432,1.1460604 0.30884705,0.920128 0.56010953,0.65157314 0.83349027,0.35937778 1.1477477,0.17031987 1.5292712,0.0685235 1.6892667,0.02583421 1.8621535,0.02389486 5.5077658,0.02389486 h 3.8112306 l 0.1829551,0.05307845 c 0.2322652,0.06738426 0.4131794,0.1474297 0.5874845,0.25993223 0.17055,0.11007922 9.351116,9.27182446 9.503365,9.48388296 0.500024,0.6964515 0.52336,1.5673125 0.06069,2.2650045 -0.0874,0.131794 -0.975262,1.031952 -3.77873,3.831054 -2.01547,2.01233 -3.716376,3.693511 -3.779791,3.735959 -0.401569,0.268789 -0.947877,0.387294 -1.422001,0.308459 z m 7.331806,-8.969574 c 0,-0.01315 -2.021494,-2.0454176 -4.492209,-4.5161596 l -4.4922089,-4.4922578 -3.5125699,0.00613 -3.5125702,0.00613 8.765e-4,3.5064137 8.765e-4,3.5064136 4.4956697,4.5117871 4.4956693,4.511787 3.508233,-3.508172 c 1.929528,-1.929495 3.508233,-3.518928 3.508233,-3.532074 z"
     id="path251" />
</svg>
