<?xml version="1.0" encoding="UTF-8" standalone="no"?>
<svg
   width="20"
   height="19"
   viewBox="0 0 20 19"
   fill="none"
   version="1.1"
   id="svg244"
   sodipodi:docname="depositsSelect.svg"
   inkscape:version="1.2.1 (9c6d41e410, 2022-07-14)"
   xmlns:inkscape="http://www.inkscape.org/namespaces/inkscape"
   xmlns:sodipodi="http://sodipodi.sourceforge.net/DTD/sodipodi-0.dtd"
   xmlns="http://www.w3.org/2000/svg"
   xmlns:svg="http://www.w3.org/2000/svg">
  <defs
     id="defs248" />
  <sodipodi:namedview
     id="namedview246"
     pagecolor="#ffffff"
     bordercolor="#000000"
     borderopacity="0.25"
     inkscape:showpageshadow="2"
     inkscape:pageopacity="0.0"
     inkscape:pagecheckerboard="0"
     inkscape:deskcolor="#d1d1d1"
     showgrid="false"
     inkscape:zoom="44.052632"
     inkscape:cx="10.010753"
     inkscape:cy="9.5113501"
     inkscape:window-width="1920"
     inkscape:window-height="1017"
     inkscape:window-x="-8"
     inkscape:window-y="-8"
     inkscape:window-maximized="1"
     inkscape:current-layer="svg244" />
  <path
     d="M13 8C13 7.45 13.45 7 14 7C14.55 7 15 7.45 15 8C15 8.55 14.55 9 14 9C13.45 9 13 8.55 13 8ZM6 7H11V5H6V7ZM20 5.5V12.47L17.18 13.41L15.5 19H10V17H8V19H2.5C2.5 19 0 10.54 0 7.5C0 4.46 2.46 2 5.5 2H10.5C11.41 0.79 12.86 0 14.5 0C14.7471 5.25901e-05 14.9904 0.0612413 15.2081 0.178113C15.4259 0.294985 15.6113 0.463909 15.7479 0.669831C15.8846 0.875753 15.9681 1.11228 15.9912 1.35832C16.0142 1.60437 15.976 1.85229 15.88 2.08C15.74 2.42 15.62 2.81 15.56 3.23L17.83 5.5H20ZM18 7.5H17L13.5 4C13.5 3.35 13.59 2.71 13.76 2.09C12.79 2.34 12 3.06 11.67 4H5.5C3.57 4 2 5.57 2 7.5C2 9.38 3.22 14.15 4.01 17H6V15H12V17H14.01L15.56 11.85L18 11.03V7.5Z"
     fill="#616161"
     id="path242" />
  <path
     style="fill:#ffffff;stroke-width:0.0227001"
     d="M 2.4705988,18.858124 C 2.4507696,18.786335 2.33183,18.364964 2.2062886,17.921744 1.4541447,15.266326 0.77686301,12.508341 0.40768552,10.597584 -0.00905077,8.4406758 -0.07790442,7.2946689 0.14884197,6.2893659 0.27522292,5.7290434 0.54870445,5.0640219 0.84667046,4.5924653 1.6166589,3.3738933 2.816437,2.5083287 4.2043479,2.1701115 4.8357595,2.0162442 4.6760264,2.0232753 7.732778,2.0147982 l 2.772802,-0.00769 0.144163,-0.1743585 c 0.90664,-1.09653544 2.229138,-1.75363919 3.652448,-1.81477502 0.3743,-0.01607741 0.575113,0.02056 0.860214,0.15694217 0.263472,0.12603587 0.520148,0.38014217 0.653669,0.64712497 C 16.00637,1.2025484 16.032295,1.60608 15.8916,1.9976105 15.73294,2.4391369 15.641513,2.7414013 15.593048,2.9846503 l -0.05063,0.2541308 1.132829,1.1329988 1.132829,1.1329991 h 1.095439 1.095438 l -0.0057,3.4769015 -0.0057,3.4769015 -1.407407,0.468934 -1.407408,0.468935 -0.839904,2.795762 -0.839904,2.795762 -2.74104,3.39e-4 -2.741039,3.36e-4 V 17.989845 16.991039 H 9.0005974 7.9904421 v 0.998806 0.998805 H 5.2485468 2.5066518 Z m 3.5449329,-2.84319 v -0.998805 h 2.9850657 2.9850656 v 0.998805 0.998806 h 1.016659 1.016658 l 0.768818,-2.559439 c 0.42285,-1.407691 0.780004,-2.570983 0.793676,-2.585092 0.01367,-0.01411 0.479428,-0.176409 1.035013,-0.360666 0.555586,-0.184256 1.09443,-0.36521 1.197432,-0.40212 l 0.187276,-0.06711 V 9.259502 7.4796894 h -0.505133 -0.505133 l -1.745264,-1.7453741 -1.745263,-1.745374 0.01532,-0.2579115 c 0.0323,-0.5436043 0.09576,-0.9912484 0.203112,-1.4326427 0.02961,-0.1217294 0.04695,-0.2213262 0.03854,-0.2213262 -0.0084,0 -0.104323,0.030096 -0.213144,0.066879 -0.821244,0.2775982 -1.488206,0.8958664 -1.818765,1.6859797 l -0.0638,0.1525008 -3.2827451,0.00819 C 5.5040426,3.9977802 5.0731094,4.0032519 4.9105175,4.0346477 4.4075376,4.1317711 3.9598118,4.3125294 3.5582705,4.580584 2.7409414,5.1262039 2.2048769,5.9528834 2.0389715,6.9235364 1.8869988,7.8126747 2.1517594,9.6012137 2.907619,12.791517 c 0.2473149,1.043856 0.6277017,2.523418 0.9645288,3.751653 0.06769,0.246831 0.1230732,0.453686 0.1230732,0.459677 0,0.006 0.4545699,0.01089 1.0101553,0.01089 h 1.0101554 z"
     id="path250" />
  <path
     style="fill:#ffffff;stroke-width:0.0227001"
     d="M 6.0155317,5.9928315 V 5.0053763 h 2.485663 2.4856633 V 5.9928315 6.9802867 H 8.5011947 6.0155317 Z"
     id="path252" />
  <path
     style="fill:#ffffff;stroke-width:0.0227001"
     d="M 13.722222,8.9472981 C 13.554715,8.8919148 13.430053,8.8142175 13.302401,8.6856375 13.078213,8.4598201 12.973521,8.1418144 13.027292,7.8499881 c 0.103505,-0.5617435 0.622733,-0.9265573 1.159461,-0.8146465 0.495578,0.1033311 0.817278,0.5204809 0.790776,1.0254046 -0.0083,0.1586314 -0.02268,0.2138767 -0.09199,0.3541278 -0.102609,0.2076143 -0.268909,0.3764491 -0.468256,0.4753921 -0.135206,0.067107 -0.17299,0.075201 -0.377256,0.080815 -0.143695,0.00395 -0.260324,-0.00478 -0.317802,-0.023783 z"
     id="path254" />
</svg>
