<?xml version="1.0" encoding="UTF-8" standalone="no"?>
<svg
   width="20"
   height="20"
   viewBox="0 0 20 20"
   fill="none"
   version="1.1"
   id="svg4"
   sodipodi:docname="insuranceSelect.svg"
   inkscape:version="1.2.1 (9c6d41e410, 2022-07-14)"
   xmlns:inkscape="http://www.inkscape.org/namespaces/inkscape"
   xmlns:sodipodi="http://sodipodi.sourceforge.net/DTD/sodipodi-0.dtd"
   xmlns="http://www.w3.org/2000/svg"
   xmlns:svg="http://www.w3.org/2000/svg">
  <defs
     id="defs8" />
  <sodipodi:namedview
     id="namedview6"
     pagecolor="#ffffff"
     bordercolor="#000000"
     borderopacity="0.25"
     inkscape:showpageshadow="2"
     inkscape:pageopacity="0.0"
     inkscape:pagecheckerboard="0"
     inkscape:deskcolor="#d1d1d1"
     showgrid="false"
     inkscape:zoom="41.85"
     inkscape:cx="10.04779"
     inkscape:cy="10.011947"
     inkscape:window-width="1920"
     inkscape:window-height="1017"
     inkscape:window-x="-8"
     inkscape:window-y="-8"
     inkscape:window-maximized="1"
     inkscape:current-layer="svg4" />
  <path
     d="m 18,3.9522103 h -4 v -2 C 14,0.85221027 13.1,-0.04778973 12,-0.04778973 H 8 c -1.1,0 -2,0.9 -2,2.00000003 v 2 H 2 c -1.1,0 -2,0.9 -2,2 V 17.95221 c 0,1.1 0.9,2 2,2 h 16 c 1.1,0 2,-0.9 2,-2 V 5.9522103 c 0,-1.1 -0.9,-2 -2,-2 z m -10,-2 h 4 v 2 H 8 Z M 18,17.95221 H 2 V 5.9522103 h 16 z"
     fill="#616161"
     id="path2" />
  <path
     d="M 11.035843,7.8518518 H 9.0358423 v 3.0000002 h -3 v 2 h 3 v 3 h 2.0000007 v -3 h 3 v -2 h -3 z"
     fill="#616161"
     id="path177"
     inkscape:transform-center-x="0.023894867" />
  <path
     style="fill:#ffffff;stroke-width:0.0238949"
     d="M 9.0442055,14.336918 V 12.843489 H 7.5507766 6.0573477 V 11.851852 10.860215 H 7.5507766 9.0442055 V 9.3667861 7.8733572 h 0.9916365 0.991637 v 1.4934289 1.4934289 h 1.493429 1.493429 v 0.991637 0.991637 h -1.493429 -1.493429 v 1.493429 1.493428 H 10.035842 9.0442055 Z"
     id="path180" />
  <path
     style="fill:#ffffff;stroke-width:0.0238949"
     d="M 1.6726404,19.912971 C 1.2319205,19.831258 0.8607718,19.625025 0.54730387,19.287664 0.30310124,19.024848 0.16837776,18.778643 0.06600616,18.4081 0.02627893,18.264304 0.02389486,17.898544 0.02389486,11.947431 V 5.6391876 L 0.07697331,5.4562325 C 0.28790781,4.729167 0.79707833,4.226114 1.5292712,4.0213835 1.7196424,3.9681532 1.7292675,3.9679011 3.864994,3.9601957 l 2.1445639,-0.00774 1.912e-4,-1.0682243 C 6.0099283,1.7608354 6.0192791,1.6285368 6.1198633,1.3261649 6.2196719,1.0261253 6.3554177,0.81303692 6.6069675,0.56152927 6.9037176,0.2648286 7.1343959,0.13074988 7.5417204,0.01821643 7.6824301,-0.0206581 7.8713785,-0.02389486 10,-0.02389486 c 2.128622,0 2.31757,0.0032368 2.45828,0.04211129 0.400426,0.11062778 0.634119,0.24487045 0.925012,0.53136541 0.32798,0.32302222 0.510444,0.67272366 0.582416,1.11623156 0.01394,0.08592 0.02445,0.6073425 0.02455,1.2184208 l 1.91e-4,1.0682243 2.144564,0.00774 c 2.135726,0.00771 2.145351,0.00796 2.335723,0.061188 0.732192,0.2047305 1.241363,0.7077835 1.452298,1.434849 l 0.05307,0.1829551 v 6.3082434 c 0,5.951113 -0.0024,6.316873 -0.04211,6.460669 -0.112544,0.407361 -0.246625,0.638027 -0.543351,0.934753 -0.291914,0.291915 -0.505282,0.417607 -0.921384,0.542777 -0.134965,0.0406 -0.545916,0.04285 -8.409522,0.04609 -4.9919602,0.0021 -8.3149585,-0.0054 -8.3870966,-0.01875 z M 18.004779,11.947431 V 5.9378734 H 10 1.995221 v 6.0095576 6.009558 H 10 18.004779 Z M 12.007168,2.9510155 V 1.9474313 H 10 7.9928315 V 2.9510155 3.9545998 H 10 12.007168 Z"
     id="path182" />
</svg>
