<?xml version="1.0" encoding="UTF-8" standalone="no"?>
<svg
   width="20"
   height="20"
   viewBox="0 0 20 20"
   fill="none"
   version="1.1"
   id="svg4"
   sodipodi:docname="Vector.svg"
   inkscape:version="1.2.1 (9c6d41e410, 2022-07-14)"
   xmlns:inkscape="http://www.inkscape.org/namespaces/inkscape"
   xmlns:sodipodi="http://sodipodi.sourceforge.net/DTD/sodipodi-0.dtd"
   xmlns="http://www.w3.org/2000/svg"
   xmlns:svg="http://www.w3.org/2000/svg">
  <defs
     id="defs8" />
  <sodipodi:namedview
     id="namedview6"
     pagecolor="#ffffff"
     bordercolor="#000000"
     borderopacity="0.25"
     inkscape:showpageshadow="2"
     inkscape:pageopacity="0.0"
     inkscape:pagecheckerboard="0"
     inkscape:deskcolor="#d1d1d1"
     showgrid="false"
     inkscape:zoom="41.85"
     inkscape:cx="10.023895"
     inkscape:cy="8.1003584"
     inkscape:window-width="1920"
     inkscape:window-height="1017"
     inkscape:window-x="-8"
     inkscape:window-y="-8"
     inkscape:window-maximized="1"
     inkscape:current-layer="svg4" />
  <path
     d="m 18,3.9522103 h -4 v -2 C 14,0.85221027 13.1,-0.04778973 12,-0.04778973 H 8 c -1.1,0 -2,0.9 -2,2.00000003 v 2 H 2 c -1.1,0 -2,0.9 -2,2 V 17.95221 c 0,1.1 0.9,2 2,2 h 16 c 1.1,0 2,-0.9 2,-2 V 5.9522103 c 0,-1.1 -0.9,-2 -2,-2 z m -10,-2 h 4 v 2 H 8 Z M 18,17.95221 H 2 V 5.9522103 h 16 z"
     fill="#616161"
     id="path2" />
  <path
     d="M 11.035843,7.8518518 H 9.0358423 v 3.0000002 h -3 v 2 h 3 v 3 h 2.0000007 v -3 h 3 v -2 h -3 z"
     fill="#616161"
     id="path177"
     inkscape:transform-center-x="0.023894867" />
</svg>
