<?xml version="1.0" encoding="UTF-8" standalone="no"?>
<svg
   width="21"
   height="21"
   viewBox="0 0 21 21"
   fill="none"
   version="1.1"
   id="svg336"
   sodipodi:docname="loansSelect.svg"
   inkscape:version="1.2.1 (9c6d41e410, 2022-07-14)"
   xmlns:inkscape="http://www.inkscape.org/namespaces/inkscape"
   xmlns:sodipodi="http://sodipodi.sourceforge.net/DTD/sodipodi-0.dtd"
   xmlns="http://www.w3.org/2000/svg"
   xmlns:svg="http://www.w3.org/2000/svg">
  <defs
     id="defs340" />
  <sodipodi:namedview
     id="namedview338"
     pagecolor="#ffffff"
     bordercolor="#000000"
     borderopacity="0.25"
     inkscape:showpageshadow="2"
     inkscape:pageopacity="0.0"
     inkscape:pagecheckerboard="0"
     inkscape:deskcolor="#d1d1d1"
     showgrid="false"
     inkscape:zoom="39.857143"
     inkscape:cx="10.487455"
     inkscape:cy="10.487455"
     inkscape:window-width="1920"
     inkscape:window-height="1017"
     inkscape:window-x="-8"
     inkscape:window-y="-8"
     inkscape:window-maximized="1"
     inkscape:current-layer="svg336" />
  <path
     d="M15 0C12.24 0 10 2.24 10 5C10 7.76 12.24 10 15 10C17.76 10 20 7.76 20 5C20 2.24 17.76 0 15 0ZM15 8C13.34 8 12 6.66 12 5C12 3.34 13.34 2 15 2C16.66 2 18 3.34 18 5C18 6.66 16.66 8 15 8ZM18 14H16C16 12.8 15.25 11.72 14.13 11.3L7.97 9H0V20H6V18.56L13 20.5L21 18V17C21 15.34 19.66 14 18 14ZM4 18H2V11H4V18ZM12.97 18.41L6 16.5V11H7.61L13.43 13.17C13.77 13.3 14 13.63 14 14C14 14 12 13.95 11.7 13.85L9.32 13.06L8.69 14.96L11.07 15.75C11.58 15.92 12.11 16 12.65 16H18C18.39 16 18.74 16.24 18.9 16.57L12.97 18.41Z"
     fill="#616161"
     id="path334" />
  <path
     style="fill:#ffffff;stroke-width:0.0250896"
     d="M 9.546595,19.53082 C 7.6698925,19.008677 6.1033602,18.574338 6.0654122,18.565622 l -0.068996,-0.01585 v 0.717048 0.717047 H 2.9982079 0 V 14.501792 9.0197133 h 3.9922392 3.992239 l 3.1018468,1.1572497 c 1.706016,0.636488 3.192166,1.202277 3.302556,1.25731 0.296729,0.147928 0.529293,0.318534 0.769935,0.564815 0.478254,0.489461 0.772357,1.131948 0.815436,1.781378 l 0.01539,0.232079 1.106431,1.5e-4 c 1.204165,1.51e-4 1.403743,0.01561 1.796499,0.139024 0.25985,0.08165 0.60868,0.252976 0.827853,0.406585 0.247983,0.1738 0.64385,0.590646 0.798898,0.841236 0.368349,0.595329 0.479289,1.092702 0.479707,2.150642 l 1.75e-4,0.439068 -4.007668,1.249491 c -2.20422,0.687217 -4.013316,1.247675 -4.020216,1.24546 -0.0069,-0.0022 -1.548029,-0.431237 -3.424731,-0.953381 z m 6.410394,-2.032638 c 1.607617,-0.498438 2.93124,-0.914027 2.941386,-0.923531 0.02857,-0.02676 -0.141613,-0.262992 -0.253029,-0.351235 -0.0549,-0.04348 -0.165706,-0.109925 -0.246238,-0.147653 l -0.14642,-0.06859 -3.048387,-0.01398 c -3.238712,-0.01486 -3.168905,-0.01231 -3.698865,-0.135214 -0.125444,-0.02909 -2.7664185,-0.883436 -2.7926115,-0.903398 -0.00904,-0.0069 0.5996975,-1.830415 0.6178002,-1.85067 0.00883,-0.0099 0.5578091,0.161123 1.2199543,0.380006 1.433558,0.473886 1.226725,0.438983 3.07016,0.518083 l 0.385973,0.01656 -0.01118,-0.134723 c -0.02327,-0.280344 -0.228335,-0.57187 -0.484779,-0.689158 -0.069,-0.03156 -1.42924,-0.543509 -3.022764,-1.137672 L 7.5906733,10.976703 H 6.7935447 5.9964158 v 2.768291 2.768291 l 1.2983871,0.355674 c 0.7141129,0.195621 2.2806451,0.62556 3.4811831,0.955422 1.200537,0.329861 2.199731,0.595316 2.22043,0.5899 0.0207,-0.0054 1.352957,-0.417661 2.960573,-0.916099 z M 4.0143369,14.489247 v -3.512544 h -1.016129 -1.016129 v 3.512544 3.512545 h 1.016129 1.016129 z"
     id="path342" />
  <path
     style="fill:#ffffff;stroke-width:0.0250896"
     d="M 14.633879,9.9715708 C 13.895971,9.9228257 13.032928,9.6442977 12.399215,9.2503828 11.931014,8.9593492 11.442996,8.5286244 11.116519,8.1182741 9.9875761,6.6993018 9.7044551,4.8160966 10.370803,3.1580748 10.503164,2.8287296 10.553519,2.7264481 10.719401,2.4499997 11.188179,1.668761 11.875778,1.0152536 12.672346,0.59388216 c 1.698475,-0.89846558 3.770066,-0.73623276 5.313282,0.41609984 0.243139,0.1815542 0.691058,0.6145942 0.888715,0.8591936 1.501312,1.8578675 1.47528,4.5055864 -0.06229,6.3351255 -1.031521,1.2273985 -2.560521,1.8741289 -4.178176,1.7672697 z M 15.355497,7.9900599 C 16.381202,7.864289 17.250292,7.2467957 17.702386,6.3225806 18.268096,5.1661009 18.03738,3.7740219 17.129525,2.8660956 16.214092,1.9505911 14.781629,1.7286551 13.623656,2.3229204 13.028729,2.6282335 12.581838,3.0864272 12.292081,3.688172 c -0.565956,1.1753342 -0.322225,2.5649353 0.607491,3.4635366 0.12916,0.1248373 0.302579,0.2729117 0.385374,0.3290537 0.344644,0.2336963 0.824894,0.42805 1.191757,0.4822952 0.103494,0.015303 0.216397,0.031967 0.250896,0.037031 0.133292,0.019566 0.424474,0.014915 0.627898,-0.010029 z"
     id="path344" />
</svg>
