<?xml version="1.0" encoding="UTF-8" standalone="no"?>
<svg
   width="14"
   height="20"
   viewBox="0 0 14 20"
   fill="none"
   version="1.1"
   id="svg4"
   sodipodi:docname="paymentsSelect.svg"
   inkscape:version="1.2.1 (9c6d41e410, 2022-07-14)"
   xmlns:inkscape="http://www.inkscape.org/namespaces/inkscape"
   xmlns:sodipodi="http://sodipodi.sourceforge.net/DTD/sodipodi-0.dtd"
   xmlns="http://www.w3.org/2000/svg"
   xmlns:svg="http://www.w3.org/2000/svg">
  <defs
     id="defs8" />
  <sodipodi:namedview
     id="namedview6"
     pagecolor="#ffffff"
     bordercolor="#000000"
     borderopacity="0.25"
     inkscape:showpageshadow="2"
     inkscape:pageopacity="0.0"
     inkscape:pagecheckerboard="0"
     inkscape:deskcolor="#d1d1d1"
     showgrid="false"
     inkscape:zoom="41.85"
     inkscape:cx="3.3094385"
     inkscape:cy="7.646356"
     inkscape:window-width="1920"
     inkscape:window-height="1017"
     inkscape:window-x="-8"
     inkscape:window-y="-8"
     inkscape:window-maximized="1"
     inkscape:current-layer="svg4" />
  <path
     d="M 6.9312509,14.72667 H 3.4536606 V 4.078893 H 6.9312509 V 7.4063531 H 8.0905095 L 8.0903935,4.078893 c 0,-0.7320577 -0.5216402,-1.3309837 -1.1592006,-1.3309837 L 1.135242,2.7480208 c -0.63749542,0 -1.15913686,0.5989256 -1.15913686,1.3308722 v 10.647444 c 0,0.732086 0.52164144,1.331011 1.15923536,1.331011 h 5.7959104 c 0.6376183,0 1.1592586,-0.598925 1.1592586,-1.331011 V 11.398912 H 6.9312509 Z m -4.6368721,0 H 1.1351376 V 4.078893 h 1.1592412 z"
     fill="#616161"
     id="path2"
     style="stroke-width:0.621054" />
  <path
     d="m 10.95183,10.098179 v 1.942485 L 14.043013,9.3787771 10.95183,6.7168891 v 1.942486 H 3.9966048 v 1.4388039 z"
     fill="#616161"
     id="path114"
     style="stroke-width:0.621054" />
  <path
     d="m 4.0222277,11.418921 h 1.1592006 v 2.661888 H 4.0222277 Z"
     fill="#616161"
     id="path122"
     style="stroke-width:0.621054" />
  <path
     style="fill:#ffffff;stroke-width:0.0238949"
     d="M 0.89605735,16.012903 C 0.47298033,15.897727 0.12349649,15.503768 0.02399991,15.029869 c -0.0529166,-0.252041 -0.0529166,-11.0024401 0,-11.2544807 C 0.12534353,3.2926909 0.496847,2.8833573 0.92269197,2.7851826 0.99031274,2.7695933 2.0953458,2.7609183 4.0382318,2.7607244 c 2.475486,-2.471e-4 3.0326298,0.00552 3.1338067,0.032464 0.2986783,0.079526 0.5762633,0.308339 0.7305089,0.6021574 0.17832,0.339677 0.1708543,0.2474051 0.1801009,2.2259208 L 8.0909398,7.39546 H 7.5161988 6.9414576 V 5.734767 4.0740741 h -1.744325 -1.744325 v 5.3285543 5.3285546 h 1.744325 1.744325 V 13.07049 11.409797 h 0.5747412 0.574741 l -0.00829,1.774193 c -0.00925,1.978516 -0.00178,1.886244 -0.1801009,2.225921 -0.1542456,0.293819 -0.4318306,0.522632 -0.7305089,0.602158 -0.170924,0.04551 -6.1089719,0.0463 -6.27598115,8.34e-4 z M 2.3058542,9.4026284 V 4.0740741 H 1.7204301 1.135006 v 5.3285543 5.3285546 h 0.5854241 0.5854241 z"
     id="path181" />
  <path
     style="fill:#ffffff;stroke-width:0.0238949"
     d="M 10.955795,11.0543 V 10.095579 H 7.479092 4.0023895 V 9.3787336 8.6618877 h 3.4764315 3.476431 l 0.0062,-0.956267 0.0062,-0.956267 1.517324,1.3065987 c 0.834528,0.7186293 1.517323,1.3137367 1.517323,1.322461 0,0.011957 -2.791133,2.4277106 -3.006102,2.6018126 -0.03793,0.03072 -0.04049,-0.02783 -0.04049,-0.925926 z"
     id="path183" />
  <path
     style="fill:#ffffff;stroke-width:0.0238949"
     d="m 4.0262843,12.747909 v -1.314217 h 0.5734768 0.5734767 v 1.314217 1.314218 H 4.5997611 4.0262843 Z"
     id="path185" />
</svg>
