<svg width="22" height="38" viewBox="0 0 22 38" fill="none" xmlns="http://www.w3.org/2000/svg">
<path d="M17.8335 0.666016H4.50016C2.20016 0.666016 0.333496 2.53268 0.333496 4.83268V33.166C0.333496 35.466 2.20016 37.3327 4.50016 37.3327H17.8335C20.1335 37.3327 22.0002 35.466 22.0002 33.166V4.83268C22.0002 2.53268 20.1335 0.666016 17.8335 0.666016ZM11.1668 35.666C9.7835 35.666 8.66683 34.5493 8.66683 33.166C8.66683 31.7827 9.7835 30.666 11.1668 30.666C12.5502 30.666 13.6668 31.7827 13.6668 33.166C13.6668 34.5493 12.5502 35.666 11.1668 35.666ZM18.6668 28.9993H3.66683V5.66602H18.6668V28.9993Z" fill="#616161"/>
</svg>
