<?xml version="1.0" encoding="UTF-8" standalone="no"?>
<svg
   width="10"
   height="14"
   viewBox="0 0 10 14"
   fill="none"
   version="1.1"
   id="svg4"
   sodipodi:docname="transfersSelect.svg"
   inkscape:version="1.2.1 (9c6d41e410, 2022-07-14)"
   xmlns:inkscape="http://www.inkscape.org/namespaces/inkscape"
   xmlns:sodipodi="http://sodipodi.sourceforge.net/DTD/sodipodi-0.dtd"
   xmlns="http://www.w3.org/2000/svg"
   xmlns:svg="http://www.w3.org/2000/svg">
  <defs
     id="defs8" />
  <sodipodi:namedview
     id="namedview6"
     pagecolor="#ffffff"
     bordercolor="#000000"
     borderopacity="0.25"
     inkscape:showpageshadow="2"
     inkscape:pageopacity="0.0"
     inkscape:pagecheckerboard="0"
     inkscape:deskcolor="#d1d1d1"
     showgrid="false"
     inkscape:zoom="42.274884"
     inkscape:cx="6.2330153"
     inkscape:cy="7.9716363"
     inkscape:window-width="1920"
     inkscape:window-height="1017"
     inkscape:window-x="-8"
     inkscape:window-y="-8"
     inkscape:window-maximized="1"
     inkscape:current-layer="svg4" />
  <path
     d="M 3.1015695,3.2406949 H 0.85156946 l 2.50000004,3.5 -2.50000004,3.5000001 H 3.1015695 l 2.5,-3.5000001 z"
     fill="#616161"
     id="path2"
     style="stroke-width:0.5" />
  <path
     d="m 6.7348651,3.2652461 h -2.25 l 2.5,3.5 -2.5,3.4999999 h 2.25 L 9.2348652,6.7652461 Z"
     fill="#616161"
     id="path2-4"
     style="stroke-width:0.5"
     inkscape:transform-center-x="0.42578473"
     inkscape:transform-center-y="-0.023654707" />
  <path
     style="fill:#ffffff;stroke-width:0.0236547"
     d="M 0.90168513,10.201092 C 0.91707995,10.17497 3.3017441,6.8270392 3.3499304,6.7638972 3.3613802,6.7488937 2.8794186,6.0535348 2.1448718,5.0252763 1.4715948,4.0827868 0.91252552,3.2983532 0.90249562,3.2820906 0.88800232,3.258591 1.1115168,3.2527643 1.991513,3.2537017 l 1.1072536,0.00118 1.2427538,1.7433552 1.2427537,1.7433552 -1.2427537,1.7433529 -1.2427538,1.743353 -1.1072536,0.0012 c -0.8795816,9.38e-4 -1.1036705,-0.0049 -1.08982787,-0.02839 z"
     id="path126" />
  <path
     style="fill:#ffffff;stroke-width:0.0236547"
     d="m 4.5298764,10.241159 c 0,-0.0072 0.5412569,-0.7709882 1.202793,-1.6972257 C 6.3942056,7.6176957 6.9496148,6.8369898 6.9669121,6.8090313 6.9962153,6.7616668 6.9141283,6.6402694 5.7641191,5.0302406 5.0852856,4.0798642 4.5298764,3.2964096 4.5298764,3.2892303 c 0,-0.00718 0.4938537,-0.013053 1.0974527,-0.013053 h 1.0974526 l 1.2364785,1.7310872 c 0.6800631,0.952098 1.2364783,1.7431899 1.2364783,1.7579821 0,0.014792 -0.5564152,0.8058842 -1.2364783,1.7579822 L 6.7247817,10.254316 H 5.6273291 c -0.603599,0 -1.0974527,-0.0059 -1.0974527,-0.01316 z"
     id="path128" />
</svg>
