<svg width="33" height="33" viewBox="0 0 33 33" fill="none" xmlns="http://www.w3.org/2000/svg">
<path d="M32.3335 14.734C32.3335 13.7739 31.6936 13.134 30.7335 13.134H25.9335V1.93398C25.9335 0.973927 25.2936 0.333984 24.3335 0.333984H1.9335C0.973439 0.333984 0.333496 0.973927 0.333496 1.93398V17.934C0.333496 18.894 0.973439 19.534 1.9335 19.534H6.7335V30.734C6.7335 31.694 7.37344 32.334 8.3335 32.334H30.7335C31.6936 32.334 32.3335 31.694 32.3335 30.734V14.734ZM24.3335 29.134V24.334H29.1335V29.134H24.3335ZM22.7335 3.53398V6.73399H3.5335V3.53398H22.7335ZM3.5335 16.334V9.93399H22.7335V13.134H8.3335C7.37344 13.134 6.7335 13.7739 6.7335 14.734V16.334H3.5335ZM9.9335 16.334H29.1335V21.134H22.7335C21.7734 21.134 21.1335 21.7739 21.1335 22.734V29.134H9.9335V16.334Z" fill="#616161"/>
</svg>
