<svg width="40" height="40" viewBox="0 0 40 40" fill="none" xmlns="http://www.w3.org/2000/svg">
<g clip-path="url(#clip0_5931_60325)">
<path d="M28.3332 24.9993H31.6666V28.3327H28.3332V24.9993ZM28.3332 18.3327H31.6666V21.666H28.3332V18.3327ZM28.3332 11.666H31.6666V14.9993H28.3332V11.666ZM22.8999 11.666L24.9999 13.066V11.666H22.8999Z" fill="#616161"/>
<path d="M16.6665 5V7.51667L19.9998 9.73333V8.33333H34.9998V31.6667H28.3332V35H38.3332V5H16.6665Z" fill="#616161"/>
<path d="M13.6165 9.5L24.9998 17.0833V35H1.6665V17.4667L13.6165 9.5ZM16.6665 31.6667H21.6665V18.6L13.6165 13.4833L4.99984 18.9667V31.6667H9.99984V21.6667H16.6665V31.6667Z" fill="#616161"/>
</g>
<defs>
<clipPath id="clip0_5931_60325">
<rect width="40" height="40" fill="white"/>
</clipPath>
</defs>
</svg>
