<svg width="158.252" height="96.388" viewBox="0 0 158.252 96.388" xmlns="http://www.w3.org/2000/svg"><g id="svgGroup" stroke-linecap="round" fill-rule="evenodd" font-size="9pt" stroke="#FFD600" stroke-width="0.25mm" fill="#FFD600" style="stroke:#FFD600;stroke-width:0.25mm;fill:#FFD600"><path d="M 94.776 40.772 L 94.776 40.87 Q 94.966 40.934 95.116 40.956 A 1.013 1.013 0 0 0 95.264 40.968 L 95.85 40.968 A 14.871 14.871 0 0 0 98.63 40.685 Q 100.944 40.243 103.711 39.112 A 39.785 39.785 0 0 0 109.23 36.303 A 21.68 21.68 0 0 1 108.316 36.208 Q 105.013 35.774 103.223 34.229 Q 100.928 32.297 100.525 28.406 A 16.966 16.966 0 0 1 100.44 26.661 A 15.701 15.701 0 0 1 101.643 20.691 A 18.169 18.169 0 0 1 101.856 20.191 A 23.312 23.312 0 0 1 104.357 15.898 A 28.235 28.235 0 0 1 105.86 14.015 A 32.367 32.367 0 0 1 109.667 10.294 A 38.686 38.686 0 0 1 111.695 8.717 Q 115.088 6.251 119.043 4.444 A 42.604 42.604 0 0 1 128.866 1.305 A 36.599 36.599 0 0 1 135.547 0.684 A 42.212 42.212 0 0 1 140.404 0.95 Q 142.91 1.241 145.086 1.849 A 25.444 25.444 0 0 1 145.532 1.978 A 24.675 24.675 0 0 1 149.392 3.478 A 18.586 18.586 0 0 1 152.783 5.616 A 15.545 15.545 0 0 1 155.549 8.458 A 13.423 13.423 0 0 1 156.885 10.67 A 13.796 13.796 0 0 1 158.252 16.7 A 16.845 16.845 0 0 1 156.415 24.283 A 20.831 20.831 0 0 1 155.469 25.977 A 22.973 22.973 0 0 1 147.461 33.79 A 12.924 12.924 0 0 1 149.794 34.737 Q 151.844 35.831 152.881 37.55 Q 154.346 40.04 154.346 43.8 A 27.747 27.747 0 0 1 154.099 47.416 A 34.498 34.498 0 0 1 153.711 49.732 Q 153.076 52.882 151.905 57.179 A 322.817 322.817 0 0 0 151.293 59.429 Q 150.71 61.604 150.329 63.175 A 73.965 73.965 0 0 0 150.025 64.478 A 24.926 24.926 0 0 0 149.608 66.853 A 18.305 18.305 0 0 0 149.463 69.093 A 8.872 8.872 0 0 0 149.742 71.36 A 7.314 7.314 0 0 0 150.513 73.219 Q 151.563 75.001 153.369 75.684 Q 147.43 77.374 143.544 77.393 A 18.028 18.028 0 0 1 143.457 77.393 A 13.622 13.622 0 0 1 141.202 77.22 Q 139.985 77.015 139.031 76.569 A 5.693 5.693 0 0 1 137.158 75.196 A 5.58 5.58 0 0 1 135.876 72.738 Q 135.661 71.875 135.646 70.859 A 10.417 10.417 0 0 1 135.645 70.704 A 18.062 18.062 0 0 1 135.771 68.643 Q 135.891 67.598 136.127 66.433 A 33.942 33.942 0 0 1 136.328 65.504 A 100.386 100.386 0 0 1 136.71 63.918 Q 137.253 61.735 138.059 58.832 A 314.943 314.943 0 0 1 138.33 57.862 A 221.546 221.546 0 0 0 138.948 55.598 Q 139.813 52.357 140.308 50.05 A 31.502 31.502 0 0 0 140.802 47.096 A 23.468 23.468 0 0 0 140.967 44.386 A 12.395 12.395 0 0 0 140.838 42.54 Q 140.688 41.543 140.361 40.734 A 5.636 5.636 0 0 0 139.649 39.454 Q 138.351 37.81 135.674 37.623 A 10.2 10.2 0 0 0 134.961 37.598 Q 133.155 37.598 131.641 37.989 L 123.633 75.684 L 109.278 75.684 L 122.852 12.061 L 137.647 10.108 L 132.764 33.204 L 133.545 33.204 A 10.71 10.71 0 0 0 139.16 31.617 A 15.857 15.857 0 0 0 143.15 28.167 A 18.602 18.602 0 0 0 143.799 27.345 A 20.886 20.886 0 0 0 146.704 21.729 A 19.871 19.871 0 0 0 147.581 18.145 A 16.625 16.625 0 0 0 147.754 15.772 A 12.48 12.48 0 0 0 147.285 12.321 A 11.592 11.592 0 0 0 147.095 11.72 A 9.729 9.729 0 0 0 145.483 8.772 A 9.239 9.239 0 0 0 145.166 8.399 Q 142.465 5.469 137.445 5.286 A 18.637 18.637 0 0 0 136.768 5.274 A 39.429 39.429 0 0 0 130.607 5.736 A 31.116 31.116 0 0 0 125.708 6.91 Q 120.752 8.546 117.188 11.72 A 20.855 20.855 0 0 0 111.67 19.434 A 24.445 24.445 0 0 0 109.952 26.186 A 30.387 30.387 0 0 0 109.766 29.591 Q 109.766 32.716 110.449 34.571 A 5.628 5.628 0 0 0 110.7 35.239 A 4.466 4.466 0 0 0 110.743 35.331 A 39.785 39.785 0 0 0 111.28 34.962 L 112.158 37.696 A 22.004 22.004 0 0 1 108.147 40.983 A 29.179 29.179 0 0 1 104.615 42.921 A 37.791 37.791 0 0 1 97.178 45.452 A 44.605 44.605 0 0 1 94.434 45.997 A 51.952 51.952 0 0 1 93.222 53.635 A 42.507 42.507 0 0 1 91.797 58.375 Q 89.746 63.966 86.524 67.97 A 23.789 23.789 0 0 1 81.958 72.318 A 21.112 21.112 0 0 1 79.248 73.975 Q 75.147 76.075 70.557 76.075 A 24.463 24.463 0 0 1 66.049 75.686 Q 63.529 75.213 61.546 74.165 A 12.359 12.359 0 0 1 59.082 72.462 Q 55.038 68.896 54.596 62.038 A 26.949 26.949 0 0 1 54.541 60.304 A 34.988 34.988 0 0 1 54.7 57.063 Q 54.859 55.36 55.176 53.492 A 46.944 46.944 0 0 1 56.947 46.483 A 51.83 51.83 0 0 1 57.129 45.948 A 42.59 42.59 0 0 1 60.273 38.702 A 30.795 30.795 0 0 1 65.772 31.446 Q 72.559 24.806 81.934 24.806 A 14.597 14.597 0 0 1 87.552 25.803 Q 93.888 28.429 94.666 37.964 A 34.537 34.537 0 0 1 94.776 40.772 Z M 29.737 79.102 L 34.717 56.983 L 34.326 56.983 A 20.156 20.156 0 0 1 30.33 61.122 A 17.943 17.943 0 0 1 27.71 62.794 A 17.814 17.814 0 0 1 19.336 64.796 A 18.747 18.747 0 0 1 14.41 64.167 A 16.311 16.311 0 0 1 11.377 63.014 Q 7.813 61.231 5.274 57.911 Q 2.735 54.591 1.367 49.903 Q 0 45.216 0 39.503 A 44.644 44.644 0 0 1 1.245 28.883 A 40.082 40.082 0 0 1 4.883 19.337 Q 9.668 10.352 17.92 5.274 A 34.6 34.6 0 0 1 36.524 0.001 A 32.18 32.18 0 0 1 40.772 0.27 A 25.204 25.204 0 0 1 44.165 0.953 A 20.639 20.639 0 0 1 47.254 2.064 A 15.545 15.545 0 0 1 50 3.663 A 12.235 12.235 0 0 1 53.662 8.033 Q 54.932 10.597 54.932 13.77 A 14.011 14.011 0 0 1 54.637 16.726 Q 54.215 18.685 53.185 20.179 A 8.588 8.588 0 0 1 52.832 20.655 Q 51.807 21.925 50.366 22.608 Q 48.926 23.292 47.315 23.292 A 7.95 7.95 0 0 1 43.799 22.486 Q 42.139 21.681 41.016 20.167 A 6.937 6.937 0 0 0 42.485 18.823 Q 43.339 17.799 44.043 16.309 Q 45.313 13.624 45.313 10.987 Q 45.313 8.447 44.092 6.886 A 5.051 5.051 0 0 0 43.579 6.324 A 5.614 5.614 0 0 0 41.317 5.048 Q 40.134 4.688 38.623 4.688 A 13.06 13.06 0 0 0 33.552 5.735 A 15.387 15.387 0 0 0 32.837 6.056 Q 29.981 7.423 27.344 9.913 A 29.497 29.497 0 0 0 24.116 13.527 A 35.925 35.925 0 0 0 22.559 15.748 Q 20.362 19.141 18.799 23.097 Q 15.43 31.446 15.43 40.675 Q 15.43 47.916 17.598 51.827 A 11.081 11.081 0 0 0 17.798 52.174 Q 20.006 55.839 24.103 56.086 A 10.006 10.006 0 0 0 24.707 56.104 A 10.229 10.229 0 0 0 31.392 53.588 Q 32.804 52.417 34.081 50.7 A 21.487 21.487 0 0 0 34.253 50.465 Q 38.247 44.941 40.811 34.24 A 94.533 94.533 0 0 0 40.918 33.79 L 52.735 33.888 L 45.41 67.481 Q 42.188 82.325 36.377 89.405 A 18.557 18.557 0 0 1 22.958 96.326 A 23.667 23.667 0 0 1 21.24 96.388 A 23.217 23.217 0 0 1 17.376 96.079 A 18.76 18.76 0 0 1 14.649 95.411 A 16.329 16.329 0 0 1 11.327 93.913 A 13.918 13.918 0 0 1 9.522 92.628 Q 7.373 90.821 6.201 88.282 A 12.912 12.912 0 0 1 5.034 83.135 A 14.936 14.936 0 0 1 5.03 82.765 Q 5.03 79.884 6.055 77.369 A 14.228 14.228 0 0 1 8.936 72.901 A 12.592 12.592 0 0 1 13.233 69.947 A 13.436 13.436 0 0 1 18.506 68.897 A 13.019 13.019 0 0 1 21.078 69.137 Q 23.196 69.564 24.683 70.753 A 5.98 5.98 0 0 1 26.974 75.104 A 8.131 8.131 0 0 1 27.002 75.782 A 8.664 8.664 0 0 1 26.875 77.312 Q 26.72 78.176 26.375 78.868 A 4.553 4.553 0 0 1 25.928 79.591 A 6.011 6.011 0 0 0 23.973 77.937 A 7.296 7.296 0 0 0 23.462 77.686 A 7.907 7.907 0 0 0 20.215 77.003 A 7.829 7.829 0 0 0 18.086 77.277 A 5.832 5.832 0 0 0 15.332 78.956 A 6.805 6.805 0 0 0 13.547 82.645 A 9.527 9.527 0 0 0 13.428 84.181 Q 13.428 87.354 15.283 89.356 A 5.849 5.849 0 0 0 19.551 91.398 A 7.551 7.551 0 0 0 19.922 91.407 Q 23.389 91.407 25.879 88.307 A 14.601 14.601 0 0 0 27.557 85.625 Q 28.255 84.212 28.827 82.459 A 36.745 36.745 0 0 0 29.737 79.102 Z M 74.561 67.091 Q 76.319 67.091 78.15 65.504 A 13.018 13.018 0 0 0 79.71 63.877 Q 80.686 62.678 81.592 61.085 A 28.473 28.473 0 0 0 83.094 58.009 Q 83.789 56.348 84.375 54.444 A 48.975 48.975 0 0 0 85.803 48.429 A 56.716 56.716 0 0 0 86.133 46.29 Q 84.668 45.899 84.058 44.825 A 4.34 4.34 0 0 1 83.62 43.689 Q 83.493 43.163 83.46 42.548 A 8.382 8.382 0 0 1 83.448 42.091 A 8.378 8.378 0 0 1 83.574 40.593 Q 83.733 39.718 84.092 39.008 A 4.903 4.903 0 0 1 84.278 38.673 A 4.906 4.906 0 0 1 86.573 36.671 A 21.599 21.599 0 0 0 86.424 35.112 Q 86.22 33.604 85.817 32.662 A 4.227 4.227 0 0 0 85.547 32.13 A 2.811 2.811 0 0 0 85.053 31.544 A 2.329 2.329 0 0 0 84.448 31.153 Q 83.789 30.86 82.764 30.86 A 5.097 5.097 0 0 0 80.025 31.715 Q 78.34 32.775 76.693 35.152 A 23.35 23.35 0 0 0 76.172 35.938 A 34.261 34.261 0 0 0 73.539 40.889 Q 72.449 43.384 71.571 46.301 A 58.956 58.956 0 0 0 71.289 47.266 A 56.808 56.808 0 0 0 70.088 52.381 Q 69.434 55.941 69.434 58.985 A 38.564 38.564 0 0 0 69.46 60.451 Q 69.518 61.964 69.702 63.038 A 8.621 8.621 0 0 0 69.93 64.031 Q 70.076 64.521 70.271 64.918 A 3.898 3.898 0 0 0 70.606 65.479 A 3.33 3.33 0 0 0 71.497 66.395 A 3.144 3.144 0 0 0 72.119 66.724 A 4.539 4.539 0 0 0 72.898 66.948 Q 73.301 67.028 73.777 67.063 A 10.645 10.645 0 0 0 74.561 67.091 Z" vector-effect="non-scaling-stroke"/></g></svg>