<svg width="34" height="24" viewBox="0 0 34 24" fill="none" xmlns="http://www.w3.org/2000/svg">
<path d="M0 0H8.49883V24.0276H0V0ZM25.5012 0H34V24.0276H25.5012V0ZM11.0424 11.6102L10.3854 11.8355L13.4545 14.5339C13.6892 15.2284 13.3747 15.4302 13.1729 15.7963L16.5049 15.3739L16.4204 18.7293L17.115 18.7059L16.9601 15.3786L20.3014 15.7728C20.095 15.3364 19.9119 15.1064 20.0997 14.4119L23.1688 11.8542L22.6338 11.6618C22.1927 11.3193 22.8215 10.0287 22.9154 9.21215C22.9154 9.21215 21.1274 9.82691 21.0101 9.50311L20.5455 8.63492L18.9217 10.4182C18.7434 10.4651 18.6683 10.3901 18.6261 10.2399L19.377 6.49965L18.185 7.17074C18.0864 7.21297 17.9879 7.17074 17.9222 7.05811L16.7724 4.75859L15.5898 7.14727C15.5006 7.23175 15.4115 7.24113 15.3364 7.18482L14.2007 6.54658L14.8812 10.2634C14.8295 10.4041 14.6981 10.4511 14.548 10.3713L12.9852 8.59738C12.7834 8.92588 12.6427 9.46087 12.3752 9.58288C12.1077 9.69082 11.2019 9.35293 10.5965 9.22153C10.803 9.9677 11.4507 11.2066 11.0424 11.6149V11.6102Z" fill="#D52B1E"/>
</svg>
