<svg width="34" height="22" viewBox="0 0 34 22" fill="none" xmlns="http://www.w3.org/2000/svg">
<rect width="24" height="16" rx="2" fill="white"/>
<mask id="mask0_1483_26692" style="mask-type:alpha" maskUnits="userSpaceOnUse" x="0" y="0" width="24" height="16">
<rect width="24" height="16" rx="2" fill="white"/>
</mask>
<g mask="url(#mask0_1483_26692)">
<rect width="24" height="16" fill="#043CAE"/>
<path fill-rule="evenodd" clip-rule="evenodd" d="M11.1918 3.4206L11.9999 3.19969L12.8081 3.4206L12.5714 2.66636L12.8081 1.91211L11.9999 2.13302L11.1918 1.91211L11.4285 2.66636L11.1918 3.4206ZM11.1918 14.0873L11.9999 13.8664L12.8081 14.0873L12.5714 13.333L12.8081 12.5788L11.9999 12.7997L11.1918 12.5788L11.4285 13.333L11.1918 14.0873ZM17.7142 8.53302L16.9061 8.75394L17.1428 7.99969L16.9061 7.24544L17.7142 7.46636L18.5224 7.24544L18.2857 7.99969L18.5224 8.75394L17.7142 8.53302ZM5.47754 8.75394L6.28566 8.53302L7.09378 8.75394L6.85709 7.99969L7.09378 7.24544L6.28566 7.46636L5.47754 7.24544L5.71423 7.99969L5.47754 8.75394ZM16.9487 5.86636L16.1405 6.08727L16.3772 5.33302L16.1405 4.57878L16.9487 4.79969L17.7568 4.57878L17.5201 5.33302L17.7568 6.08727L16.9487 5.86636ZM6.24311 11.4206L7.05123 11.1997L7.85935 11.4206L7.62266 10.6664L7.85935 9.91211L7.05123 10.133L6.24311 9.91211L6.4798 10.6664L6.24311 11.4206ZM14.8571 3.91422L14.049 4.13513L14.2857 3.38089L14.049 2.62664L14.8571 2.84755L15.6652 2.62664L15.4285 3.38089L15.6652 4.13513L14.8571 3.91422ZM8.33468 13.3727L9.1428 13.1518L9.95093 13.3727L9.71423 12.6185L9.95093 11.8642L9.1428 12.0852L8.33468 11.8642L8.57137 12.6185L8.33468 13.3727ZM16.9487 11.1997L16.1405 11.4206L16.3772 10.6664L16.1405 9.91211L16.9487 10.133L17.7568 9.91211L17.5201 10.6664L17.7568 11.4206L16.9487 11.1997ZM6.24311 6.08727L7.05123 5.86636L7.85935 6.08727L7.62266 5.33302L7.85935 4.57878L7.05123 4.79969L6.24311 4.57878L6.4798 5.33302L6.24311 6.08727ZM14.8571 13.1518L14.049 13.3727L14.2857 12.6185L14.049 11.8642L14.8571 12.0852L15.6652 11.8642L15.4285 12.6185L15.6652 13.3727L14.8571 13.1518ZM8.33468 4.13513L9.1428 3.91422L9.95093 4.13513L9.71423 3.38089L9.95093 2.62664L9.1428 2.84755L8.33468 2.62664L8.57137 3.38089L8.33468 4.13513Z" fill="#FFD429"/>
</g>
<rect x="11" y="6" width="23" height="16" rx="2" fill="white"/>
<mask id="mask1_1483_26692" style="mask-type:alpha" maskUnits="userSpaceOnUse" x="11" y="6" width="23" height="16">
<rect x="11" y="6" width="23" height="16" rx="2" fill="white"/>
</mask>
<g mask="url(#mask1_1483_26692)">
<path d="M13.9062 5C11.3176 5 10 7.00398 10 9.4759V18.4277C10 20.8996 11.3176 22.9036 13.9062 22.9036H31.0938C33.6824 22.9036 35 20.8996 35 18.4277V9.4759C35 7.00398 33.6824 5 31.0938 5" fill="#EC1C24"/>
<path d="M17.4219 15.9857H20.5469V19.2409H24.0625V15.9857H27.1875V12.3236H24.0625V9.06836H20.5469V12.3236H17.4219V15.9857Z" fill="white"/>
</g>
</svg>
