<?xml version="1.0" encoding="UTF-8" standalone="no"?>
<svg
   width="23"
   height="16"
   viewBox="0 0 23 16"
   fill="none"
   version="1.1"
   id="svg58"
   sodipodi:docname="Vector.svg"
   inkscape:version="1.2.1 (9c6d41e410, 2022-07-14)"
   xmlns:inkscape="http://www.inkscape.org/namespaces/inkscape"
   xmlns:sodipodi="http://sodipodi.sourceforge.net/DTD/sodipodi-0.dtd"
   xmlns="http://www.w3.org/2000/svg"
   xmlns:svg="http://www.w3.org/2000/svg">
  <defs
     id="defs62">
    <mask
       id="mask6_5931_60134"
       maskUnits="userSpaceOnUse"
       x="32"
       y="621"
       width="24"
       height="16">
      <rect
         x="32"
         y="621"
         width="24"
         height="16"
         rx="2"
         fill="#ffffff"
         id="rect158" />
    </mask>
    <mask
       id="mask7_5931_60134"
       maskUnits="userSpaceOnUse"
       x="43"
       y="627"
       width="23"
       height="16">
      <rect
         x="43"
         y="627"
         width="23"
         height="16"
         rx="2"
         fill="#ffffff"
         id="rect169" />
    </mask>
  </defs>
  <sodipodi:namedview
     id="namedview60"
     pagecolor="#ffffff"
     bordercolor="#000000"
     borderopacity="0.25"
     inkscape:showpageshadow="2"
     inkscape:pageopacity="0.0"
     inkscape:pagecheckerboard="0"
     inkscape:deskcolor="#d1d1d1"
     showgrid="false"
     inkscape:zoom="26.15625"
     inkscape:cx="15.120669"
     inkscape:cy="9.1756272"
     inkscape:window-width="1920"
     inkscape:window-height="1017"
     inkscape:window-x="-8"
     inkscape:window-y="-8"
     inkscape:window-maximized="1"
     inkscape:current-layer="svg58" />
  <rect
     x="0.052978396"
     y="0.10293562"
     width="16.146742"
     height="11.523407"
     rx="1.3455619"
     fill="#ffffff"
     id="rect156"
     style="stroke-width:0.696093" />
  <g
     mask="url(#mask6_5931_60134)"
     id="g165"
     transform="matrix(0.67278094,0,0,0.72021289,-21.476012,-447.14927)">
    <rect
       x="32"
       y="621"
       width="24"
       height="16"
       fill="#043cae"
       id="rect161" />
    <path
       fill-rule="evenodd"
       clip-rule="evenodd"
       d="m 43.1918,624.421 0.8081,-0.221 0.8082,0.221 -0.2367,-0.755 0.2367,-0.754 -0.8082,0.221 -0.8081,-0.221 0.2367,0.754 z m 0,10.666 0.8081,-0.221 0.8082,0.221 -0.2367,-0.754 0.2367,-0.754 -0.8082,0.221 -0.8081,-0.221 0.2367,0.754 z m 6.5224,-5.554 -0.8081,0.221 0.2367,-0.754 -0.2367,-0.755 0.8081,0.221 0.8082,-0.221 -0.2367,0.755 0.2367,0.754 z m -12.2367,0.221 0.8082,-0.221 0.8081,0.221 -0.2367,-0.754 0.2367,-0.755 -0.8081,0.221 -0.8082,-0.221 0.2367,0.755 z m 11.4712,-2.888 -0.8082,0.221 0.2367,-0.754 -0.2367,-0.754 0.8082,0.221 0.8081,-0.221 -0.2367,0.754 0.2367,0.754 z m -10.7056,5.555 0.8081,-0.221 0.8082,0.221 -0.2367,-0.755 0.2367,-0.754 -0.8082,0.221 -0.8081,-0.221 0.2367,0.754 z m 8.614,-7.507 -0.8081,0.221 0.2367,-0.754 -0.2367,-0.754 0.8081,0.221 0.8081,-0.221 -0.2367,0.754 0.2367,0.754 z m -6.5224,9.459 0.8081,-0.221 0.8081,0.221 -0.2367,-0.755 0.2367,-0.754 -0.8081,0.221 -0.8081,-0.221 0.2367,0.754 z m 8.614,-2.173 -0.8082,0.221 0.2367,-0.755 -0.2367,-0.754 0.8082,0.221 0.8081,-0.221 -0.2367,0.754 0.2367,0.755 z m -10.7056,-5.113 0.8081,-0.221 0.8082,0.221 -0.2367,-0.754 0.2367,-0.754 -0.8082,0.221 -0.8081,-0.221 0.2367,0.754 z m 8.614,7.065 -0.8081,0.221 0.2367,-0.755 -0.2367,-0.754 0.8081,0.221 0.8081,-0.221 -0.2367,0.754 0.2367,0.755 z m -6.5224,-9.017 0.8081,-0.221 0.8081,0.221 -0.2367,-0.754 0.2367,-0.754 -0.8081,0.221 -0.8081,-0.221 0.2367,0.754 z"
       fill="#ffd429"
       id="path163" />
  </g>
  <rect
     x="7.4535685"
     y="4.4242129"
     width="15.473962"
     height="11.523407"
     rx="1.3455619"
     fill="#ffffff"
     id="rect167"
     style="stroke-width:0.696093" />
  <g
     mask="url(#mask7_5931_60134)"
     id="g176"
     transform="matrix(0.67278094,0,0,0.72021289,-21.476012,-447.14927)">
    <path
       d="M 45.9062,626 C 43.3176,626 42,628.004 42,630.476 v 8.952 c 0,2.472 1.3176,4.476 3.9062,4.476 H 63.0938 C 65.6824,643.904 67,641.9 67,639.428 v -8.952 C 67,628.004 65.6824,626 63.0938,626"
       fill="#ec1c24"
       id="path172" />
    <path
       d="m 49.4219,636.986 h 3.125 v 3.255 h 3.5156 v -3.255 h 3.125 v -3.662 h -3.125 v -3.256 h -3.5156 v 3.256 h -3.125 z"
       fill="#ffffff"
       id="path174" />
  </g>
  <rect
     x="-2.0986218"
     y="-5.5896149"
     width="34.323887"
     height="22.801695"
     rx="0.78245926"
     stroke="#eeeeee"
     id="rect186"
     style="stroke-width:0.0586737" />
</svg>
